#!OML:ASF H:\Terrain\Patient Classification 1\Walking\steve\steve.ASF
:FULLY-SPECIFIED
:DEGREES
31
root 5.99974 15.1516 -40.6971 6.95609 -5.03902 -2.89509
lowerback -3.57405 5.09616 5.70344
upperback -0.833296 6.55949 1.04726
thorax 1.64906 3.29654 -1.73826
lowerneck -7.97407 -1.28726 -2.25219
upperneck 17.4457 -1.46856 0.355142
head 6.6431 -0.815864 0.370809
rclavicle 1.64494e-014 -1.07344e-014
rhumerus -4.89116 2.05878 -82.1587
rradius 37.525
rwrist -8.47404
rhand -19.2648 -36.1824
rfingers 7.12502
rthumb 7.04957 -66.045
lclavicle 1.64494e-014 -1.07344e-014
lhumerus -58.5527 2.14581 86.1628
lradius 22.4837
lwrist 10.2626
lhand -20.7657 -36.1199
lfingers 7.12502
lthumb 5.60057 -6.21388
rfemur 1.15037 -2.19581 25.3438
rtibia 22.6128
rfoot -11.8192 25.7909
rtoes 20.3161
lfemur -32.5949 -0.149588 -13.7038
ltibia 0
lfoot -8.42994 11.2577
ltoes -25.4231
32
root 6.01516 15.1406 -40.5374 7.01842 -5.40628 -3.1382
lowerback -4.12422 5.24045 6.00141
upperback -0.419246 6.68151 0.997458
thorax 2.43347 3.38302 -1.8616
lowerneck -8.28284 -1.3279 -2.32422
upperneck 17.1748 -1.51415 0.398054
head 6.6123 -0.837802 0.391254
rclavicle -5.2181e-014 -2.42517e-014
rhumerus -3.93229 2.11479 -82.1882
rradius 37.3202
rwrist -8.63349
rhand -19.0201 -35.9097
rfingers 7.12502
rthumb 7.2858 -65.7642
lclavicle -5.2181e-014 -2.42517e-014
lhumerus -58.0577 2.83727 85.289
lradius 21.8556
lwrist 9.60559
lhand -20.8381 -36.388
lfingers 7.12502
lthumb 5.53068 -6.48017
rfemur 1.94346 -2.11476 25.3495
rtibia 22.093
rfoot -11.2461 26.1709
rtoes 20.0945
lfemur -32.6335 0.109271 -13.2741
ltibia 9.22361e-014
lfoot -9.12885 10.5424
ltoes -21.3584
33
root 6.02805 15.1259 -40.3825 7.21205 -5.62538 -3.71683
lowerback -4.10617 5.59578 6.47178
upperback -0.423413 7.13754 0.839747
thorax 2.53275 3.61766 -2.23811
lowerneck -8.68195 -1.52699 -1.66283
upperneck 17.0771 -1.90014 0.50806
head 6.64998 -0.97181 0.282526
rclavicle 6.04305e-014 1.11319e-014
rhumerus -3.85357 1.21179 -82.2879
rradius 37.4171
rwrist -8.62376
rhand -18.9023 -35.7685
rfingers 7.12502
rthumb 7.39941 -65.6191
lclavicle 6.04305e-014 1.11319e-014
lhumerus -57.7664 2.65845 84.3185
lradius 21.1435
lwrist 8.96727
lhand -20.8181 -35.0044
lfingers 7.12502
lthumb 5.54996 -5.09709
rfemur 2.69798 -1.9539 25.7954
rtibia 21.3669
rfoot -10.224 26.2092
rtoes 20.441
lfemur -32.855 0.301941 -12.4582
ltibia 5.725e-014
lfoot -9.519 10.0959
ltoes -16.3405
34
root 6.04112 15.112 -40.2258 7.40886 -5.78233 -4.09618
lowerback -4.03187 5.93166 6.64999
upperback -0.453682 7.5882 0.658223
thorax 2.54804 3.84498 -2.48759
lowerneck -9.35032 -1.721 -0.97277
upperneck 17.1489 -2.27823 0.559216
head 6.78658 -1.10384 0.146748
rclavicle -1.49089e-014 -5.56597e-015
rhumerus -3.90728 0.355391 -82.3328
rradius 37.5369
rwrist -8.69296
rhand -18.6243 -35.6139
rfingers 7.12502
rthumb 7.66782 -65.4549
lclavicle -1.49089e-014 -5.56597e-015
lhumerus -57.6958 1.8968 84.0155
lradius 21.1428
lwrist 9.11338
lhand -20.8479 -31.7939
lfingers 7.12502
lthumb 5.52118 -1.88582
rfemur 3.43279 -1.8218 26.0273
rtibia 20.6731
rfoot -9.48862 26.1299
rtoes 20.6063
lfemur -33.0729 0.369345 -11.8989
ltibia -3.49861e-014
lfoot -8.99276 10.2551
ltoes -16.2976
35
root 6.05901 15.1052 -40.0602 7.52474 -6.00091 -4.16781
lowerback -4.18569 5.85236 6.61388
upperback -0.354783 7.46397 0.804326
thorax 2.70058 3.78706 -2.3073
lowerneck -9.79375 -1.42981 -1.74509
upperneck 17.1527 -1.82031 0.977253
head 6.87379 -0.896497 0.445137
rclavicle -1.69514e-013 -2.62396e-014
rhumerus -3.68376 1.09148 -82.2153
rradius 37.4814
rwrist -8.94818
rhand -18.563 -35.8925
rfingers 7.12502
rthumb 7.72691 -65.7313
lclavicle -1.69514e-013 -2.62396e-014
lhumerus -57.8457 3.04459 83.395
lradius 20.89
lwrist 8.58618
lhand -20.9614 -28.2414
lfingers 7.12502
lthumb 5.41165 1.66954
rfemur 4.14338 -1.69773 25.8728
rtibia 20.2167
rfoot -9.02279 26.2257
rtoes 19.834
lfemur -32.9639 0.443992 -11.6636
ltibia -8.26944e-014
lfoot -8.96342 9.98406
ltoes -13.4537
36
root 6.07645 15.0933 -39.892 7.62647 -6.23309 -4.06407
lowerback -4.18635 5.73833 6.40167
upperback -0.418629 7.32274 0.897378
thorax 2.58271 3.70984 -2.11616
lowerneck -10.1008 -1.15934 -2.77671
upperneck 17.4434 -1.40137 1.71245
head 7.02859 -0.697734 0.88918
rclavicle -3.26007e-014 5.96354e-015
rhumerus -3.86794 1.72165 -82.1743
rradius 37.5339
rwrist -8.90738
rhand -18.0803 -37.1303
rfingers 7.12502
rthumb 8.19288 -66.9514
lclavicle -3.26007e-014 5.96354e-015
lhumerus -58.5175 4.02097 82.9137
lradius 21.1122
lwrist 8.42947
lhand -20.7255 -24.1931
lfingers 7.12502
lthumb 5.63937 5.7119
rfemur 4.77769 -1.38262 25.5729
rtibia 19.9312
rfoot -8.33611 26.2788
rtoes 19.6628
lfemur -32.7428 0.432694 -11.7151
ltibia -3.81667e-014
lfoot -8.66605 10.1476
ltoes -14.2784
37
root 6.09204 15.067 -39.7258 7.84559 -6.3661 -4.08971
lowerback -4.14421 5.98108 6.27228
upperback -0.595001 7.66924 0.623326
thorax 2.42712 3.87631 -2.31073
lowerneck -9.50306 -1.61302 -1.6598
upperneck 16.8539 -2.07778 0.918074
head 6.72882 -1.02135 0.392335
rclavicle -1.16687e-013 -2.10712e-014
rhumerus -4.58523 1.13613 -82.2739
rradius 37.9525
rwrist -8.94453
rhand -17.6423 -37.4427
rfingers 7.12502
rthumb 8.61553 -67.247
lclavicle -1.16687e-013 -2.10712e-014
lhumerus -58.9028 3.23201 82.766
lradius 21.5105
lwrist 8.94051
lhand -20.3369 -20.1914
lfingers 7.12502
lthumb 6.01455 9.70328
rfemur 5.34057 -0.881752 25.5048
rtibia 19.5981
rfoot -7.50204 26.0835
rtoes 20.8525
lfemur -32.7149 0.300434 -11.708
ltibia -1.01778e-013
lfoot -7.36959 10.8744
ltoes -19.5452
